<?xml version="1.0" encoding="UTF-8"?>
<svg version="1.1" xmlns="http://www.w3.org/2000/svg" width="768" height="194">
<path d="M0 0 C9.30188138 3.09502021 16.34681704 11.33759156 20.91796875 19.7421875 C22.9835441 24.05230501 24 27.20557291 24 32 C24.99 31.505 24.99 31.505 26 31 C38.38915935 30.23939045 49.32169916 31.11842835 60 38 C59.42635658 45.45736451 55.16111018 52.69552564 50 58 C40.29670707 65.95385227 30.28455112 67.57885319 18 67 C17.87794189 67.73178467 17.75588379 68.46356934 17.63012695 69.2175293 C12.04299963 93.88877691 -11.87010963 119.24427737 -32.3828125 132.76171875 C-57.87008181 148.80899835 -86.19724141 156.40438724 -116.26123047 156.31567383 C-118.49886375 156.31250161 -120.73518352 156.33614127 -122.97265625 156.36132812 C-146.18668305 156.46338285 -168.40107517 149.86800691 -185.58984375 133.6015625 C-201.91374101 115.98127794 -210.17904618 92.72793486 -210.125 68.8125 C-210.12757813 67.66394531 -210.13015625 66.51539062 -210.1328125 65.33203125 C-210.0053359 62.13386827 -209.55433002 59.14735045 -209 56 C-208.02669865 55.99761165 -207.05339729 55.99522329 -206.05060196 55.99276257 C-182.33760496 55.93389533 -158.62470897 55.85796789 -134.91182327 55.76428509 C-123.44431733 55.71937277 -111.97684212 55.67994756 -100.50927734 55.65356445 C-90.51091197 55.63054743 -80.51264424 55.59710802 -70.51435637 55.55129844 C-65.22328363 55.52741622 -59.93230731 55.50865468 -54.64118195 55.50238609 C-49.65399792 55.49631261 -44.66706042 55.47623127 -39.67996788 55.44572449 C-37.85638584 55.43698044 -36.03277153 55.43321409 -34.20916939 55.43499184 C-24.38136588 55.44154353 -15.45207205 55.09034025 -6 52 C-6.44581421 51.03646606 -6.44581421 51.03646606 -6.90063477 50.0534668 C-12.53002214 37.88672635 -12.21270612 25.71584356 -8 13 C-5.85038925 8.31098242 -3.67295347 3.67295347 0 0 Z " fill="#2396ED" transform="translate(211,38)"/>
<path d="M0 0 C3.32920947 2.60260114 4.82971033 4.09612848 5.62145996 8.2986145 C5.61940552 9.55117035 5.61735107 10.8037262 5.61523438 12.09423828 C5.62078339 12.78930984 5.6263324 13.48438141 5.63204956 14.20051575 C5.64382761 16.49115707 5.61957843 18.7798103 5.59375 21.0703125 C5.59203713 22.67349152 5.59210637 24.27667334 5.59387207 25.87985229 C5.59221945 29.24081218 5.57354475 32.60110463 5.54199219 35.96191406 C5.50250669 40.24204114 5.49792506 44.52128692 5.50545502 48.80156136 C5.50854675 52.11503988 5.49632345 55.4283253 5.47932434 58.74175644 C5.47235352 60.3179897 5.46916252 61.89424487 5.47001648 63.47049332 C5.45788552 78.21697802 3.52759901 89.25170926 -6.3125 100.6875 C-15.97750631 109.00390078 -24.98715835 112.63210383 -37.82421875 112.28515625 C-45.95667359 111.55493583 -52.42539563 108.73883822 -59 104 C-60.03125 103.278125 -61.0625 102.55625 -62.125 101.8125 C-69.49241068 95.38859968 -73.34475774 85.41490267 -74.31640625 75.90234375 C-74.70037673 65.51036839 -72.41359032 55.92791946 -65.6953125 47.80859375 C-57.09078747 38.62911198 -48.50594926 33.93907926 -35.90234375 32.8125 C-27.55208403 32.54688538 -20.1401805 34.79239363 -13 39 C-12.67 39.33 -12.34 39.66 -12 40 C-11.98541748 38.99622314 -11.97083496 37.99244629 -11.95581055 36.95825195 C-11.89767948 33.2212425 -11.82044835 29.48482631 -11.73754883 25.74829102 C-11.7043689 24.13348037 -11.67631542 22.51855569 -11.65356445 20.90356445 C-11.61988975 18.57714408 -11.56757037 16.25176217 -11.51171875 13.92578125 C-11.50532883 13.20787918 -11.4989389 12.48997711 -11.49235535 11.75032043 C-11.36456144 7.35802666 -10.69717057 4.49991467 -8 1 C-5.11138291 -0.44430855 -3.20352299 -0.37688506 0 0 Z M-54.84375 59.15625 C-58.78474417 65.440538 -58.68221991 71.78421254 -58 79 C-56.27420357 85.6519622 -51.5438245 90.18023266 -46 94 C-39.78558454 97.08663019 -32.23707279 97.14496951 -25.5859375 95.34765625 C-19.2607293 92.50253364 -15.51969911 87.63414513 -12.125 81.75 C-10.016801 74.72267001 -9.98446892 68.45206973 -13 61.6875 C-16.63020955 55.20056305 -22.02058234 51.36177563 -29 49 C-39.56257057 47.45861105 -48.14454472 50.89909 -54.84375 59.15625 Z " fill="#2396ED" transform="translate(373,50)"/>
<path d="M0 0 C7.98324076 7.1865764 13.19730094 15.20611568 14.0703125 26.07421875 C14.38537201 33.04618072 14.38537201 33.04618072 12.21343994 35.81317139 C9.28587864 38.168523 7.82293844 38.1778761 4.10058594 38.14550781 C2.93968445 38.14520569 1.77878296 38.14490356 0.58270264 38.14459229 C-0.66533142 38.12394714 -1.91336548 38.103302 -3.19921875 38.08203125 C-4.48092957 38.07637146 -5.76264038 38.07071167 -7.08319092 38.06488037 C-10.48323003 38.04964093 -13.88258069 38.01037541 -17.28234863 37.96606445 C-20.75454394 37.92507424 -24.22685099 37.90686146 -27.69921875 37.88671875 C-34.50679241 37.84387825 -41.31390999 37.77564837 -48.12109375 37.69140625 C-47.34963399 38.96892397 -46.57247178 40.24299909 -45.79296875 41.515625 C-45.36081055 42.22549561 -44.92865234 42.93536621 -44.48339844 43.66674805 C-41.01153933 48.82662754 -36.37914592 51.55153497 -30.53515625 53.2421875 C-23.55726658 54.54066211 -18.48909984 53.12018479 -12.43359375 49.56640625 C-6.66387813 46.18781747 -6.66387813 46.18781747 -3.12109375 46.44140625 C-0.12109375 47.69140625 -0.12109375 47.69140625 1.94140625 50.37890625 C2.87890625 53.69140625 2.87890625 53.69140625 2.56640625 56.69140625 C-0.9970957 63.02652083 -7.45948546 66.30328252 -14.12109375 68.69140625 C-26.07782753 71.5698792 -37.20048585 69.73195363 -47.74609375 63.69140625 C-57.74274709 56.93270711 -62.83034478 47.37422598 -65.12109375 35.69140625 C-66.47955371 25.50295657 -63.97746636 15.0207513 -57.80859375 6.75390625 C-42.7295938 -10.76340007 -18.83652888 -15.18338388 0 0 Z M-46.0625 16.9453125 C-47.39480995 18.94887181 -47.39480995 18.94887181 -48.12109375 22.69140625 C-33.27109375 22.69140625 -18.42109375 22.69140625 -3.12109375 22.69140625 C-5.75973414 16.09480528 -8.85386268 11.51597464 -15.30859375 8.25390625 C-27.09291704 3.70626471 -38.20924547 7.31228357 -46.0625 16.9453125 Z " fill="#2396ED" transform="translate(686.12109375,92.30859375)"/>
<path d="M0 0 C2.64902251 2.07238604 3.8549834 3.27154018 4.51898193 6.60699463 C4.52786438 7.59294617 4.53674683 8.57889771 4.54589844 9.59472656 C4.56561707 10.71558655 4.58533569 11.83644653 4.60565186 12.99127197 C4.60688049 14.19555847 4.60810913 15.39984497 4.609375 16.640625 C4.63417938 18.49660309 4.63417938 18.49660309 4.65948486 20.39007568 C4.69982385 23.67151531 4.72314761 26.9524963 4.73822021 30.23413086 C4.75780671 33.58595841 4.80010897 36.93741314 4.83984375 40.2890625 C4.91384629 46.85930483 4.9654191 53.42943834 5 60 C8.63612196 57.63389455 12.2712652 55.26628949 15.90625 52.8984375 C16.92364258 52.23642334 17.94103516 51.57440918 18.98925781 50.89233398 C25.90349763 46.38701532 32.78495672 41.83724691 39.60523987 37.19075012 C43.67621352 34.44622041 46.97164158 33.18940354 52 33 C54.9375 34.4375 54.9375 34.4375 57 37 C57.94327177 42.40237467 57.94327177 42.40237467 57 45 C52.64768555 49.16984164 47.64467783 52.29162248 42.5625 55.5 C37.26318593 58.86329799 32.07698093 62.30765023 27 66 C30.79497102 70.36848754 34.62300718 74.70405255 38.5 79 C42.37361149 83.3003653 46.24245821 87.59757118 50 92 C50.65613281 92.7425 51.31226563 93.485 51.98828125 94.25 C55.00772148 97.8321816 56.83309767 100.1515798 57.75 104.8125 C57 108 57 108 54.875 110.4375 C51.47301239 112.28640631 49.82504388 112.46320756 46 112 C43.47265625 110.09375 43.47265625 110.09375 41.0625 107.5 C40.19882812 106.5821875 39.33515625 105.664375 38.4453125 104.71875 C33.14602613 98.82689167 33.14602613 98.82689167 30.77734375 96.0625 C28.7202376 93.67535264 26.61315228 91.33765244 24.5 89 C20.62300718 84.70405255 16.79497102 80.36848754 13 76 C10.0280615 77.12451727 7.66559313 78.22293791 5 80 C4.55459959 82.84325197 4.55459959 82.84325197 4.62890625 86.1796875 C4.61150391 87.41847656 4.59410156 88.65726562 4.57617188 89.93359375 C4.56708443 92.55337483 4.56185286 95.17317223 4.56054688 97.79296875 C4.54185547 99.03433594 4.52316406 100.27570313 4.50390625 101.5546875 C4.50205322 102.69405762 4.5002002 103.83342773 4.49829102 105.00732422 C3.8944463 108.63394278 2.89685786 109.80279164 0 112 C-2.9375 112.5625 -2.9375 112.5625 -6 112 C-8.79573024 109.98284975 -10.69643128 108.37082106 -11.46352005 104.90688896 C-11.65227519 102.27318328 -11.67543687 99.6811885 -11.64697266 97.04077148 C-11.65573425 96.04184875 -11.66449585 95.04292603 -11.67352295 94.01373291 C-11.6955086 90.71574318 -11.68096743 87.41909682 -11.6640625 84.12109375 C-11.66743058 81.82853437 -11.67228313 79.53597673 -11.67855835 77.24342346 C-11.68592837 72.44083643 -11.67521842 67.63871458 -11.65185547 62.83618164 C-11.62335225 56.67643226 -11.63978169 50.51777134 -11.66971779 44.35806179 C-11.68777313 39.62514522 -11.68204096 34.89248736 -11.66907883 30.15956306 C-11.6657408 27.88813206 -11.66984574 25.61667765 -11.68147659 23.34527397 C-11.69415743 20.17282625 -11.67484608 17.00214956 -11.64697266 13.82983398 C-11.65709381 12.88894424 -11.66721497 11.9480545 -11.67764282 10.97865295 C-11.57417701 4.6313948 -11.57417701 4.6313948 -8.65097046 1.41688538 C-5.40897425 -0.31589026 -3.6239513 -0.61684277 0 0 Z " fill="#2396ED" transform="translate(557,50)"/>
<path d="M0 0 C9.53643777 5.78521662 16.10268253 14.10287804 19.25 24.8125 C21.50169997 35.33407984 19.94688832 45.87400711 14.71484375 55.3203125 C7.90629366 64.99262599 -0.63427772 70.95125169 -12.0625 73.75 C-24.35217678 74.79592994 -34.99568031 72.61522842 -45 65 C-52.65797597 57.97688214 -57.57512319 49.70051621 -58.23828125 39.2421875 C-58.55909967 26.51007093 -56.54261462 17.04589267 -47.5625 7.375 C-34.42470279 -4.80149497 -16.28519501 -8.70880461 0 0 Z M-39.84375 21.15625 C-43.78474417 27.440538 -43.68221991 33.78421254 -43 41 C-41.27420357 47.6519622 -36.5438245 52.18023266 -31 56 C-24.78558454 59.08663019 -17.23707279 59.14496951 -10.5859375 57.34765625 C-4.2607293 54.50253364 -0.51969911 49.63414513 2.875 43.75 C4.983199 36.72267001 5.01553108 30.45206973 2 23.6875 C-1.63020955 17.20056305 -7.02058234 13.36177563 -14 11 C-24.56257057 9.45861105 -33.14454472 12.89909 -39.84375 21.15625 Z " fill="#2396ED" transform="translate(444,88)"/>
<path d="M0 0 C2.9261401 3.32156444 3.47002529 5.21429184 3.3125 9.625 C1.875 12.5625 1.875 12.5625 -0.6875 14.625 C-6.771179 15.6389465 -9.97289737 14.34269883 -14.92578125 10.81640625 C-19.62241873 7.640188 -25.26600193 8.01472666 -30.6875 8.625 C-37.01684445 10.55997102 -41.89560808 13.77624929 -45.55859375 19.328125 C-48.51000205 25.33306645 -49.35077426 31.29934971 -47.75 37.8125 C-45.65797513 43.60012828 -42.15267475 48.41710105 -36.921875 51.75 C-29.84396224 55.06577895 -22.93787004 55.2251327 -15.6875 52.625 C-14.26487458 51.79426983 -12.86751154 50.91863371 -11.5 50 C-8.87755473 48.24301381 -7.64303234 47.61730368 -4.4375 47.0625 C-0.97861753 47.76999869 0.20929141 48.82072188 2.3125 51.625 C3.4251367 54.08869554 3.36483411 55.34090056 2.875 58 C-1.13692364 64.74003172 -8.20740786 67.74394134 -15.47265625 69.93359375 C-27.806915 72.58628366 -38.86592306 70.05929215 -49.3671875 63.34375 C-57.3432043 57.43558941 -62.89023032 48.44644341 -64.6875 38.625 C-65.56143448 26.57616556 -64.31943377 16.1506936 -56.44140625 6.53515625 C-41.28171557 -9.97506366 -18.91586294 -13.60140621 0 0 Z " fill="#2396ED" transform="translate(535.6875,91.375)"/>
<path d="M0 0 C1.875 1.375 1.875 1.375 3 3 C3 3.99 3 4.98 3 6 C3.94101562 5.57847656 4.88203125 5.15695313 5.8515625 4.72265625 C7.10921737 4.16891269 8.36703881 3.61554732 9.625 3.0625 C10.24246094 2.78470703 10.85992188 2.50691406 11.49609375 2.22070312 C21.13543008 -1.99016485 31.00165286 -1.921053 41 1 C44.5625 2.6875 44.5625 2.6875 47 5 C48.34957374 9.12369753 48.47651477 11.02625242 46.5625 14.9375 C42.84291335 17.93131364 40.70656577 17.44824436 36 17 C35.01 16.67 34.02 16.34 33 16 C24.90329706 15.0569564 18.73688065 16.35471407 12 21 C8.13997352 24.4613383 5.3313643 28.65807956 4.81082153 33.90792847 C4.72274043 36.2097965 4.69750395 38.5050558 4.69140625 40.80859375 C4.6662504 42.54232113 4.64085231 44.27604501 4.61523438 46.00976562 C4.58649957 48.72630944 4.56246345 51.44279263 4.54370117 54.15942383 C4.52198513 56.79279276 4.4825491 59.42546699 4.44140625 62.05859375 C4.44129044 62.86501816 4.44117462 63.67144257 4.4410553 64.50230408 C4.35593368 69.37917208 3.6970983 72.77277348 1 77 C-1.88861709 78.44430855 -3.79647701 78.37688506 -7 78 C-10.2610819 75.43103961 -11.81875005 73.93149603 -12.62145996 69.80613708 C-12.61940552 68.60352737 -12.61735107 67.40091766 -12.61523438 66.16186523 C-12.62078339 65.4945639 -12.6263324 64.82726257 -12.63204956 64.13973999 C-12.64381153 61.94528218 -12.61961311 59.75290544 -12.59375 57.55859375 C-12.59203805 56.02832636 -12.59210544 54.49805603 -12.59387207 52.9677887 C-12.59222089 49.76575542 -12.57355948 46.56442401 -12.54199219 43.36254883 C-12.50228088 39.26108315 -12.49795188 35.16053472 -12.50545502 31.05891323 C-12.5085261 27.90098182 -12.49639996 24.74325612 -12.47932434 21.58537483 C-12.47230085 20.07313388 -12.46916902 18.56086962 -12.47001648 17.04861259 C-12.46821615 14.9348939 -12.44681791 12.82226937 -12.41992188 10.70874023 C-12.41150269 9.50692612 -12.4030835 8.305112 -12.39440918 7.06687927 C-11.96534415 3.7305202 -11.37201573 2.34624147 -9 0 C-5.45026831 -1.1832439 -3.60040463 -0.90010116 0 0 Z " fill="#2396ED" transform="translate(719,84)"/>
<path d="M0 0 C9.57 0 19.14 0 29 0 C29 8.91 29 17.82 29 27 C19.43 27 9.86 27 0 27 C0 18.09 0 9.18 0 0 Z " fill="#2495ED" transform="translate(88,63)"/>
<path d="M0 0 C9.57 0 19.14 0 29 0 C29 8.91 29 17.82 29 27 C19.43 27 9.86 27 0 27 C0 18.09 0 9.18 0 0 Z " fill="#2496ED" transform="translate(55,63)"/>
<path d="M0 0 C9.57 0 19.14 0 29 0 C29 8.91 29 17.82 29 27 C19.43 27 9.86 27 0 27 C0 18.09 0 9.18 0 0 Z " fill="#2495EC" transform="translate(22,63)"/>
<path d="M0 0 C9.57 0 19.14 0 29 0 C29 8.91 29 17.82 29 27 C19.43 27 9.86 27 0 27 C0 18.09 0 9.18 0 0 Z " fill="#2495ED" transform="translate(88,31)"/>
<path d="M0 0 C9.57 0 19.14 0 29 0 C29 8.91 29 17.82 29 27 C19.43 27 9.86 27 0 27 C0 18.09 0 9.18 0 0 Z " fill="#2396ED" transform="translate(55,31)"/>
<path d="M0 0 C9.24 0 18.48 0 28 0 C28 8.91 28 17.82 28 27 C18.76 27 9.52 27 0 27 C0 18.09 0 9.18 0 0 Z " fill="#2496EC" transform="translate(154,63)"/>
<path d="M0 0 C9.24 0 18.48 0 28 0 C28 8.91 28 17.82 28 27 C18.76 27 9.52 27 0 27 C0 18.09 0 9.18 0 0 Z " fill="#2495EC" transform="translate(121,63)"/>
<path d="M0 0 C9.24 0 18.48 0 28 0 C28 8.91 28 17.82 28 27 C18.76 27 9.52 27 0 27 C0 18.09 0 9.18 0 0 Z " fill="#2395ED" transform="translate(121,31)"/>
<path d="M0 0 C9.24 0 18.48 0 28 0 C28 8.91 28 17.82 28 27 C18.76 27 9.52 27 0 27 C0 18.09 0 9.18 0 0 Z " fill="#2495EC" transform="translate(121,0)"/>
</svg>
